<?xml version="1.0" standalone="no"?>
<!DOCTYPE svg PUBLIC "-//W3C//DTD SVG 20010904//EN"
 "http://www.w3.org/TR/2001/REC-SVG-20010904/DTD/svg10.dtd">
<svg version="1.0" xmlns="http://www.w3.org/2000/svg"
 width="1500.000000pt" height="1500.000000pt" viewBox="0 0 1500.000000 1500.000000"
 preserveAspectRatio="xMidYMid meet">
<metadata>
Created by potrace 1.14, written by Peter Selinger 2001-2017
</metadata>
<g transform="translate(0.000000,1500.000000) scale(0.100000,-0.100000)"
fill="#000000" stroke="none">
<path d="M7886 12240 c-520 -32 -1228 -202 -1821 -435 -490 -193 -850 -396
-1123 -633 l-62 -54 -73 23 c-106 35 -252 34 -322 -2 -67 -34 -107 -91 -113
-162 -2 -33 1 -63 8 -77 11 -21 10 -26 -11 -42 -126 -98 -160 -147 -161 -227
0 -58 19 -97 67 -140 l36 -32 -61 -102 c-235 -393 -379 -801 -452 -1282 -19
-130 -22 -188 -22 -435 0 -240 4 -306 22 -420 26 -163 60 -285 113 -403 47
-106 71 -145 137 -224 l50 -60 -39 -97 c-169 -420 -198 -847 -77 -1123 91
-209 271 -361 491 -414 26 -6 47 -14 47 -16 0 -3 -13 -22 -28 -42 -49 -63 -82
-128 -88 -175 -12 -87 44 -177 119 -191 20 -4 57 2 97 14 35 11 65 19 65 18
35 -62 101 -110 168 -121 44 -8 137 15 157 39 7 8 16 15 20 15 5 0 29 -38 54
-86 84 -158 152 -240 411 -504 212 -215 345 -363 345 -383 0 -3 -60 -5 -132
-5 -88 0 -159 -6 -208 -17 -41 -10 -88 -20 -105 -24 -74 -15 -221 -137 -324
-267 -79 -100 -349 -524 -355 -559 -12 -64 31 -118 96 -119 49 -1 73 -30 36
-46 -13 -5 -120 -53 -238 -106 -499 -223 -638 -278 -1375 -549 -644 -236 -883
-334 -1166 -475 -398 -200 -701 -413 -975 -685 -374 -372 -608 -755 -885
-1448 -32 -81 -59 -152 -59 -157 0 -6 60 -10 158 -10 l157 1 54 137 c300 766
695 1298 1241 1673 359 247 722 416 1680 784 483 185 601 236 915 390 226 111
379 204 503 304 34 28 64 51 67 51 2 0 28 -33 57 -74 29 -41 112 -152 184
-248 305 -402 528 -781 739 -1258 121 -272 233 -498 305 -612 148 -237 276
-314 366 -224 25 25 34 43 34 68 0 25 12 48 48 93 27 33 86 114 132 180 117
169 259 356 516 681 122 155 233 299 247 319 l26 38 8 -29 c4 -16 8 -78 8
-139 -1 -102 -5 -124 -53 -296 -60 -211 -72 -275 -72 -375 0 -178 79 -306 305
-494 325 -270 524 -580 575 -897 l12 -73 89 0 89 0 0 33 c0 107 -57 311 -130
462 -111 231 -262 417 -505 621 -213 178 -230 206 -230 374 1 108 4 125 48
275 101 339 102 498 6 686 -95 184 -230 301 -620 539 -425 260 -778 526 -1108
836 -12 11 -7 21 34 66 65 71 127 168 197 307 32 64 58 119 58 122 0 3 -27 27
-59 53 -51 40 -62 54 -75 100 -37 128 -170 282 -466 540 -290 252 -381 351
-525 567 -74 109 -87 135 -105 207 -13 50 -68 115 -119 142 -20 10 -44 27 -54
38 -17 19 -17 21 12 68 33 51 39 91 19 127 -24 45 -33 47 -223 45 -179 -3
-180 -3 -237 25 -112 55 -212 196 -243 345 -19 89 -19 289 1 393 35 187 107
446 144 519 86 169 259 198 468 78 98 -56 162 -105 194 -149 43 -60 186 -202
228 -228 41 -25 70 -26 109 -6 53 27 61 62 72 322 28 662 86 1015 261 1583 33
107 69 210 81 229 27 45 75 64 237 96 482 95 870 197 1124 296 55 21 101 37
104 35 2 -3 -27 -55 -64 -118 -53 -90 -68 -123 -71 -163 -5 -56 17 -101 62
-131 57 -37 253 -35 432 5 48 11 134 27 191 36 212 33 540 130 777 227 66 28
188 74 270 104 l150 54 100 -11 c146 -17 470 -6 620 20 146 26 347 79 477 126
l98 35 38 -53 c46 -61 129 -140 193 -185 62 -42 55 16 99 -847 63 -1248 69
-1412 77 -2075 7 -668 -7 -895 -77 -1195 -92 -396 -288 -742 -578 -1016 -339
-321 -726 -498 -1201 -550 -232 -25 -549 3 -766 66 -150 45 -284 76 -405 94
-162 25 -190 13 -190 -85 0 -46 2 -49 88 -133 99 -97 165 -140 292 -188 252
-94 600 -140 927 -121 78 4 148 9 155 10 10 2 15 -30 20 -138 7 -164 41 -357
98 -567 40 -150 58 -197 90 -232 18 -19 15 -25 -87 -220 -214 -409 -300 -536
-454 -676 -270 -245 -312 -289 -388 -417 -28 -47 -65 -122 -83 -166 -28 -70
-32 -93 -33 -171 0 -72 4 -96 19 -118 28 -42 51 -50 85 -32 44 22 68 63 116
196 82 224 134 300 349 503 183 173 253 266 359 476 74 146 182 402 217 515 8
24 31 57 58 82 l44 42 -6 68 c-8 102 -17 147 -31 158 -7 5 -30 61 -50 124 -51
159 -158 593 -148 601 4 4 49 17 98 30 666 171 1263 688 1529 1322 111 264
176 543 207 887 14 157 7 1178 -10 1491 -41 735 -93 1444 -117 1603 -6 36 -5
37 25 37 103 0 188 105 222 275 17 87 17 300 0 380 -31 142 -90 273 -171 379
-27 37 -50 69 -50 72 0 3 18 29 40 57 52 70 113 202 141 307 20 71 23 111 24
240 0 140 -2 159 -22 195 -36 68 -105 115 -168 115 -14 0 -25 3 -25 8 1 4 5
39 10 77 11 89 1 131 -45 175 -32 31 -42 35 -104 38 l-69 4 29 46 c35 55 38
110 10 156 -32 51 -69 65 -226 86 -334 44 -521 91 -940 235 -230 80 -317 113
-421 160 -47 21 -89 34 -103 32 -14 -3 -53 10 -100 34 -42 21 -119 49 -171 62
-191 50 -537 74 -814 57z m-1966 -7879 l20 -30 -39 -176 c-22 -98 -41 -179
-43 -181 -3 -3 -368 356 -368 362 0 7 156 36 230 43 163 16 176 15 200 -18z
m-389 -249 c160 -223 281 -365 456 -529 315 -297 519 -449 1010 -754 125 -78
256 -162 291 -187 71 -50 183 -157 227 -216 l30 -39 -35 -25 c-80 -59 -395
-401 -637 -693 -137 -165 -355 -453 -379 -502 -30 -59 -30 -59 -113 62 -77
112 -142 236 -284 541 -207 444 -309 629 -490 886 -155 221 -241 324 -589 712
-76 84 -138 158 -138 163 0 6 11 25 24 42 13 18 65 108 116 202 129 236 173
309 231 382 53 66 125 133 143 133 6 0 68 -80 137 -178z"/>
<path d="M9545 8861 c-92 -55 -94 -177 -4 -243 15 -11 72 -26 149 -38 242 -41
381 -83 588 -181 163 -77 216 -93 237 -73 66 66 -126 282 -348 392 -104 51
-230 95 -377 133 -134 34 -202 37 -245 10z"/>
<path d="M7816 8794 c-253 -46 -539 -201 -710 -385 -115 -124 -177 -239 -129
-239 9 0 59 28 112 62 298 194 505 262 831 277 149 6 170 10 210 32 62 33 85
82 70 140 -15 53 -64 104 -115 118 -53 15 -172 12 -269 -5z"/>
<path d="M7645 8064 c-85 -44 -101 -80 -121 -274 -27 -262 -1 -366 101 -406
88 -33 150 7 205 137 46 108 64 203 64 324 0 93 -3 117 -22 155 -12 25 -35 53
-51 63 -37 22 -135 23 -176 1z"/>
<path d="M9942 8059 c-58 -29 -136 -132 -152 -201 -37 -151 43 -374 146 -408
58 -20 122 -5 164 38 74 75 123 318 90 438 -17 61 -81 128 -135 143 -55 15
-64 14 -113 -10z"/>
<path d="M9280 7193 c-30 -11 -50 -37 -50 -63 0 -22 13 -37 69 -79 83 -61 136
-119 176 -192 60 -108 31 -257 -61 -321 -109 -77 -255 -46 -449 94 -118 85
-130 91 -171 84 -88 -17 -141 -145 -85 -210 45 -52 232 -156 351 -196 92 -30
227 -37 310 -16 172 44 298 189 331 379 24 147 -25 300 -127 397 -54 51 -148
101 -214 115 -19 3 -42 8 -50 10 -8 2 -22 1 -30 -2z"/>
<path d="M4450 7183 c-24 -8 -40 -34 -40 -63 0 -18 14 -40 42 -68 l42 -42 -21
-22 c-33 -37 -43 -63 -43 -115 0 -136 151 -199 258 -107 l41 34 44 -57 c60
-77 94 -109 139 -127 100 -42 196 5 219 108 16 74 1 120 -58 178 -180 174
-507 322 -623 281z"/>
<path d="M9512 5667 c-109 -103 -174 -151 -254 -185 -55 -23 -77 -26 -168 -26
-86 0 -115 4 -162 22 -76 31 -165 99 -217 166 -67 87 -138 107 -216 63 -83
-47 -108 -147 -57 -228 37 -58 154 -165 225 -208 219 -130 476 -145 692 -40
185 91 319 255 341 418 6 44 4 52 -19 75 -44 44 -69 35 -165 -57z"/>
<path d="M9247 3396 c-7 -19 141 -161 271 -259 114 -87 157 -141 168 -216 5
-28 -1 -125 -16 -253 l-23 -207 -36 -39 c-20 -21 -65 -87 -101 -146 -42 -70
-102 -150 -170 -225 -140 -155 -165 -188 -200 -265 -41 -90 -59 -171 -67 -298
-3 -60 -8 -108 -10 -108 -3 0 -50 36 -106 80 -162 128 -224 135 -312 39 -80
-86 -253 -371 -243 -400 2 -7 31 21 65 62 92 112 238 249 266 249 13 0 36 -13
53 -31 39 -42 314 -273 341 -287 38 -21 91 -15 119 13 l25 25 -6 188 c-6 155
-4 201 10 267 30 144 53 183 228 380 104 117 176 218 203 284 14 36 20 41 48
41 42 0 72 23 85 63 21 67 34 229 35 427 1 201 0 206 -25 260 -50 105 -104
150 -320 264 -122 64 -225 106 -259 106 -10 0 -20 -6 -23 -14z"/>
<path d="M9953 2763 c-3 -8 -2 -18 4 -22 5 -3 47 -34 94 -67 137 -100 279
-183 621 -365 438 -232 564 -310 735 -452 297 -248 465 -527 708 -1177 79
-211 192 -493 247 -612 l31 -68 148 0 149 0 0 24 c0 13 -3 26 -7 28 -12 5
-135 251 -176 348 -19 47 -72 189 -117 315 -181 506 -246 661 -347 825 -141
228 -330 424 -547 570 -175 117 -383 211 -901 407 -181 69 -399 156 -483 193
-124 55 -154 65 -159 53z"/>
<path d="M7126 1321 c-3 -4 41 -112 98 -239 89 -202 108 -236 142 -263 60 -48
122 -76 228 -102 115 -30 138 -43 177 -107 33 -54 51 -65 80 -49 51 27 47 109
-8 170 -48 53 -88 72 -213 104 -57 14 -120 35 -142 46 -84 43 -151 123 -238
284 -76 139 -109 181 -124 156z"/>
<path d="M2870 1165 c0 -15 126 -820 153 -975 l32 -185 98 -3 c74 -2 97 0 97
10 0 45 -153 626 -212 808 -38 119 -118 311 -140 338 -10 12 -28 17 -28 7z"/>
<path d="M4055 809 c-4 -6 -2 -191 5 -410 l14 -399 114 0 114 0 -7 53 c-20
159 -96 454 -168 646 -40 110 -57 135 -72 110z"/>
</g>
</svg>
