<?xml version="1.0" encoding="UTF-8" standalone="no"?>
<!DOCTYPE svg PUBLIC "-//W3C//DTD SVG 1.1//EN" "http://www.w3.org/Graphics/SVG/1.1/DTD/svg11.dtd">
<svg width="100%" height="100%" viewBox="0 0 1500 1500" version="1.1" xmlns="http://www.w3.org/2000/svg" xmlns:xlink="http://www.w3.org/1999/xlink" xml:space="preserve" xmlns:serif="http://www.serif.com/" style="fill-rule:evenodd;clip-rule:evenodd;stroke-linejoin:round;stroke-miterlimit:2;">
    <rect id="Face" x="-0" y="0" width="1500" height="1500" style="fill:none;"/>
    <g id="Face1" serif:id="Face">
        <g transform="matrix(1.94345,0,0,1.94345,-153.955,148.86)">
            <g id="body_Macbook" transform="matrix(1,0,0,1,0,459)">
                <clipPath id="_clip1">
                    <rect x="79.732" y="-23.999" width="652.519" height="260.226"/>
                </clipPath>
                <g clip-path="url(#_clip1)">
                    <g id="_Skin" transform="matrix(1,0,0,1,25.001,-24)">
                        <path d="M971.081,233.472L928.243,237.672C859.855,242.897 791.494,253.809 723.63,260.358C721.94,257.608 718.63,258.058 716.625,259.972C709.853,259.379 702.264,254.203 696.125,259.587C695.925,259.559 695.725,259.526 695.525,259.507C684.603,238.544 677.053,216.185 669.725,193.796C665.048,180.031 658.756,166.706 647.125,157.464C627.281,143.689 581.813,115.756 558.512,116.93C558.144,112.626 556.176,108.612 553,105.684C560.038,93.684 531.9,85.856 529.912,87.247C531.184,47.159 512.327,12.347 470.747,4.362C433.492,-3.4 380.509,-4.7 360.475,34.225C358.275,33.977 335.762,33.86 333.583,34.104C330.197,29.815 293.007,70.457 308.249,84.604C171.978,144.888 94.493,137.7 56.775,307.164C51.675,323.084 51.304,340.505 45.92,356.07C26.763,400.8 11.226,448.432 7.359,497.1C-1.98,499.493 -3.055,515.96 7.759,518.342C11.891,519.253 15.347,520.497 18.359,522.856C16.004,562.742 25.65,653.856 31.728,653.575C44.122,693.018 99.403,704.15 138.541,690.289C131.794,702.982 138.541,710.963 138.541,717.745C279.368,723.073 433.348,720.005 574.136,727.312C592.145,727.056 611.087,731.735 628.85,729.042C639.683,726.442 639.701,709.412 628.713,707.306L676.726,696.878C675.653,696.478 696.517,682.595 712.286,656.662C726.964,627.652 716.974,592.634 723.625,561.078C775.569,556.83 828.373,555.014 879.749,546.217C886.754,567.176 917.078,542.11 926.716,532.027L926.68,531.98C931.558,530.609 935.017,526.219 935.211,521.156C938.482,516.482 939.169,509.894 936.032,505.377C950.41,422.409 972.332,337.697 980.254,253.949C983.079,253.346 985.714,252.062 987.929,250.209L987.748,250.028C991.537,245.804 992.274,238.513 985.957,234.928C980.865,232.029 976.611,232.928 971.081,233.472Z" style="fill:white;fill-rule:nonzero;"/>
                    </g>
                    <g id="_Top" transform="matrix(1,0,0,1,32.456,3.932)">
                        <path d="M599.044,706.568C580.132,706.568 552.375,704.718 516.544,701.068C500.775,699.462 468.331,697.948 420.112,696.568C379.271,695.4 335.084,694.543 302.82,693.917L302.72,693.917C285.886,693.59 272.59,693.332 264.704,693.126L262.54,693.067C240.205,692.422 217.693,692.096 195.63,692.096C173.567,692.096 151.33,692.423 129.54,693.067L129.54,666.067L254.54,604.067L366.54,541.067L420.54,516.067L431.54,523.067L521.54,552.067L576.54,559.067L621.54,552.067L621.54,629.067L630.54,701.067C629.54,702.892 626.391,704.279 621.165,705.192C615.939,706.105 608.5,706.568 599.044,706.568ZM170.6,504.653L147.368,504.653L12.183,472.007L0,467.986C1.03,455.913 2.71,443.905 5.035,432.014C7.256,420.567 10.143,408.653 13.615,396.602C20.468,373.287 28.767,350.421 38.464,328.138C41.247,320.095 42.717,311.397 44.139,302.985C45.474,295.085 46.854,286.925 49.319,279.232C56.793,245.652 65.93,218.441 77.253,196.044C79.975,190.659 82.876,185.464 85.873,180.605C88.813,175.838 91.944,171.237 95.173,166.93C101.341,158.683 108.282,151.042 115.9,144.112C129.463,131.764 145.447,121.34 166.2,111.306C185.015,102.206 205.446,94.465 229.1,85.496L229.109,85.496C250.527,77.376 274.802,68.173 300.79,56.677C298.474,54.482 297.158,51.429 297.151,48.238C297.149,44.551 297.897,40.902 299.351,37.513C301.968,30.846 306.951,23.02 313.028,16.042C315.286,13.398 317.751,10.938 320.4,8.686C322.644,6.835 324.367,5.857 325.382,5.857C325.666,5.838 325.943,5.955 326.127,6.172L326.34,6.153L326.802,6.129L327.396,6.108C328.957,6.063 331.791,6.037 335.376,6.037C342.649,6.037 351.683,6.142 353.018,6.293C354.136,4.119 355.391,2.017 356.773,0L365.04,6.172L346.993,35.822L434.906,106.933L434.906,163.733L462.738,190.058L478.646,163.733L501.063,133.922L516.994,85.6L511.57,53.76L522.478,52.732C522.531,54.901 522.522,57.116 522.452,59.315C522.732,59.182 523.043,59.126 523.352,59.155C525.298,59.155 529.868,60.213 534.506,62.173C536.809,63.119 539.007,64.302 541.065,65.703C542.919,66.904 544.489,68.495 545.665,70.365C547.046,72.641 547,75.52 545.546,77.751C548.729,80.676 550.699,84.693 551.065,89C551.543,88.976 552.034,88.964 552.523,88.964C558.057,88.964 565.082,90.458 573.403,93.406C581.733,96.457 589.85,100.06 597.7,104.191C605.165,108.041 613.07,112.52 621.195,117.505C629.395,122.538 635.776,126.826 639.681,129.536C645.315,134.098 650.033,139.687 653.586,146.006C657.143,152.318 660.055,158.972 662.278,165.868L663.378,169.226L664.516,172.673L665.661,176.118C671.684,194.137 678.567,213.328 688.076,231.579C688.225,231.593 688.376,231.616 688.514,231.636L688.54,231.636L688.676,231.656C690.484,230.043 692.838,229.176 695.26,229.231C697.864,229.371 700.438,229.858 702.914,230.678C704.955,231.32 707.049,231.776 709.172,232.041C710.147,231.079 711.452,230.523 712.821,230.486C714.129,230.469 715.356,231.135 716.056,232.24L716.177,232.427L631.8,249.051L576.14,444.295L527.67,404.949L501.652,408.819L432.942,433.6L353.03,454.357L170.6,504.653Z" style="fill:white;fill-rule:nonzero;"/>
                    </g>
                    <g id="_Computer" transform="matrix(1,0,0,1,459.6,215.4)">
                        <path d="M127.855,341.045C133.531,319.563 137.913,301.893 141.648,285.436C143.054,279.236 144.461,272.936 145.821,266.848L145.821,266.834C149.076,252.261 152.442,237.192 156.037,222.434C166.09,181.159 177.664,138.892 190.437,96.808C193.061,88.163 195.792,79.381 198.556,70.708L200.497,64.639L201.991,59.803C203.06,56.085 204.5,52.483 206.291,49.054C208.056,45.663 210.698,42.808 213.942,40.785C217.23,38.906 220.778,37.525 224.471,36.685C228.239,35.745 232.164,35.129 235.961,34.533C237.961,34.219 239.846,33.923 241.692,33.586L247.786,32.441C256.858,30.748 266.071,29.097 275.169,27.532C318.73,20.039 363.116,13.95 407.095,9.432C429.865,7.094 453.095,5.125 476.139,3.581C498.977,2.05 522.262,0.894 545.35,0.145L549.967,0L547.454,14C546.861,14.194 546.249,14.361 545.633,14.5C544.867,22.6 543.933,31.034 542.867,39.572L527.286,126.411C524.515,142.251 521.928,157.9 519.515,172.571L516.159,189.115L514.082,199.4C509.85,220.4 505.382,243 501.412,265.931C501.983,266.758 502.438,267.659 502.763,268.61L502.469,269.854L502.269,270.684L502.059,271.503C501.326,274.399 500.405,277.245 499.301,280.021C498.237,282.724 496.877,285.301 495.247,287.705C493.653,290.053 491.692,292.129 489.438,293.854C487.035,295.653 484.313,296.98 481.416,297.766C474.475,299.68 466.968,300.305 459.708,300.909C457.231,301.115 454.671,301.328 452.201,301.589L451.133,301.705L282.469,320.672C264.72,322.672 245.869,324.838 221.353,327.709L203.7,329.78C199.447,330.273 195.118,330.755 190.932,331.221L190.882,331.227C170.848,333.459 150.132,335.767 130.091,340.027C129.281,340.191 128.519,340.537 127.862,341.039L127.855,341.045ZM377.9,119.157C377.875,119.156 377.85,119.156 377.825,119.156C375.804,119.156 374.141,120.819 374.141,122.84C374.141,123.101 374.168,123.36 374.223,123.615L374.341,124.215C374.988,127.82 374.579,131.537 373.164,134.915C371.748,138.303 369.66,141.37 367.025,143.928C365.345,145.463 363.518,146.829 361.57,148.005C358.026,150.32 354.361,152.715 352.976,156.648C352.39,158.249 352.352,160.001 352.869,161.626C353.393,163.206 354.325,164.62 355.569,165.726L354.989,166.012L354.422,166.302L353.868,166.595L353.328,166.895L352.802,167.195C350.186,168.644 347.793,170.464 345.7,172.6C343.777,174.494 342.44,176.903 341.848,179.536C341.211,182.895 342.272,186.329 345.002,189.745C346.752,191.903 348.88,193.725 351.282,195.121C353.748,196.547 356.388,197.65 359.135,198.403C364.864,199.892 370.769,200.593 376.687,200.487C379.258,200.487 381.953,200.387 384.924,200.193L385.792,200.133C395.277,199.422 412.315,196.31 419.859,183.464C421.383,180.941 422.085,178.004 421.865,175.064C421.614,172.122 420.351,169.357 418.293,167.24C415.819,164.652 411.15,161.712 406.745,161.369C406.972,159.092 406.647,156.794 405.798,154.669C404.821,152.517 403.205,150.717 401.17,149.515C399.129,148.249 396.79,147.542 394.389,147.466C394.545,143.766 393.437,139.76 390.998,135.225C388.769,131.329 386.262,127.598 383.498,124.061C383.082,123.503 382.652,122.926 382.236,122.361L381.694,121.622L381.167,120.896C380.427,119.818 379.205,119.166 377.897,119.151L377.9,119.157ZM125.48,339.94C124.354,339.173 123.016,338.777 121.654,338.808L121.354,338.808C111.139,338.698 100.98,337.29 91.121,334.616C81.247,331.94 71.526,328.73 62,325L59.082,323.888L50.948,320.761C43.454,317.89 34.72,314.603 25.897,311.926L22.474,310.9L20.734,310.386C14.809,308.656 7.82,306.828 0.909,306.386L0,306.335L1.942,305.316C2.209,305.175 2.462,305.007 2.696,304.816C4.027,304.916 5.273,304.962 6.507,304.962C8.991,304.97 11.472,304.753 13.917,304.315C21.221,302.987 28.266,300.499 34.783,296.944L37.683,295.371L38.872,294.74L39.658,294.332L40.439,293.938C42.451,292.9 44.55,292.038 46.711,291.363C48.876,290.699 51.128,290.358 53.393,290.352C55.081,290.356 56.764,290.538 58.414,290.893C64.838,292.245 70.714,295.337 76.391,298.326C77.785,299.06 79.225,299.818 80.648,300.537L81.929,301.175L82.789,301.591L83.666,302.004L84.554,302.41C91.271,305.432 97.008,306.964 101.605,306.964C107.925,306.964 111.954,304.04 113.581,298.272C114.962,293.372 114.194,288.431 111.299,283.572C111.475,283.557 111.653,283.55 111.828,283.55C114.328,283.55 117.666,284.912 121.203,286.35C124.665,287.761 128.244,289.22 131.347,289.532L131.777,289.567L125.477,339.927L125.48,339.94ZM376.3,193.481C372.258,193.535 368.22,193.209 364.24,192.506C360.407,191.881 356.746,190.464 353.492,188.345C350.721,186.445 349.112,184.168 348.838,181.765C348.669,179.407 349.566,177.094 351.279,175.465C353.624,172.913 356.047,170.276 358.56,167.71C359.927,168.383 361.431,168.736 362.955,168.74C365.194,168.65 367.388,168.086 369.393,167.086C369.588,167.001 369.693,166.784 369.638,166.578C369.595,166.329 369.385,166.14 369.133,166.125C368.088,166.125 365.679,165.175 363.407,163.867C362.151,163.145 359.207,161.297 358.972,159.746C358.661,157.678 362.031,155.92 364.26,154.756L364.267,154.756C364.511,154.629 364.742,154.508 364.949,154.397L365.249,154.233L365.509,154.082C367.676,152.77 369.707,151.245 371.572,149.531C376.262,145.328 379.62,139.842 381.229,133.753L381.36,133.209L386.201,151.342L386.117,151.491C385.574,152.523 385.625,153.771 386.251,154.755C386.903,155.873 388.084,156.582 389.377,156.632C390.195,156.626 390.975,156.283 391.532,155.684L391.799,155.397C392.45,154.676 393.376,154.26 394.348,154.254C395.798,154.347 397.149,155.028 398.086,156.138C399.106,157.168 399.726,158.529 399.835,159.974C399.865,162.279 399.171,164.537 397.853,166.428C396.551,168.291 394.893,169.877 392.974,171.095L392.709,171.267L392.009,171.7C390.85,172.374 390.302,173.769 390.693,175.052C391.157,176.535 392.539,177.552 394.093,177.552C394.283,177.552 394.472,177.537 394.66,177.508C398.545,176.913 402.117,173.938 404.46,169.344C405.278,169.561 406.108,169.73 406.945,169.852C408.608,170.033 410.226,170.509 411.723,171.257C413.44,172.038 414.655,173.631 414.953,175.494C415.052,177.101 414.628,178.699 413.744,180.045C412.822,181.562 411.68,182.935 410.356,184.117L410.196,184.26L409.876,184.539C406.244,187.544 402.026,189.761 397.492,191.05C392.96,192.354 388.287,193.106 383.574,193.289L383.04,193.313C381.215,193.39 378.79,193.481 376.3,193.481Z" style="fill:white;fill-rule:nonzero;"/>
                    </g>
                    <g id="_Ink" transform="matrix(1,0,0,1,19,-5)">
                        <path d="M644.108,714.587C643.05,714.587 642.039,714.139 641.329,713.355C639.522,711.387 638.19,709.03 637.436,706.467C636.703,703.907 636.165,701.295 635.826,698.653L635.826,698.631C635.692,697.764 635.554,696.868 635.403,695.986C634.349,689.82 633.394,683.417 632.482,676.412C630.565,661.678 629.511,649.548 629.165,638.236C628.765,625.208 628.919,611.982 629.624,598.926C629.968,592.563 630.407,585.726 631.29,578.81C631.696,575.628 632.049,572.958 632.451,570.271C632.601,569.271 632.768,568.256 632.963,567.171L622.152,568.391C606.319,570.158 589.427,571.906 572.296,572.172L572.2,572.172C570.47,572.192 568.831,571.38 567.8,569.99C566.629,571.891 564.519,573.02 562.288,572.938L562.256,572.938C538.469,572.85 516.368,564.862 496.029,556.244C490.945,554.089 485.819,551.814 480.861,549.614L480.84,549.605C475.375,547.18 469.723,544.672 464.115,542.319C459.995,540.59 455.686,539.04 451.515,537.541C445.453,535.478 439.502,533.099 433.689,530.414L408.069,543.853C407.406,546.249 405.914,548.335 403.861,549.738C402.372,550.782 400.763,551.644 399.068,552.304C396.637,553.315 394.03,553.835 391.398,553.832C390.681,553.832 389.965,553.794 389.252,553.72C365.822,565.997 347.838,575.405 330.939,584.22L311.486,594.36C300.238,600.217 288.909,606.15 277.954,611.887C250.875,626.069 222.874,640.734 195.126,654.753L192.255,656.198C179.699,662.498 164.785,669.641 149.37,674.909C149.155,678.732 149.228,682.566 149.59,686.378L149.666,687.251C149.7,687.614 149.737,687.976 149.775,688.36L149.775,688.402C150.086,690.711 150.162,693.046 150.002,695.371C149.884,697.619 148.904,699.737 147.267,701.283C146.362,702.071 145.201,702.506 144.001,702.506C142.502,702.561 141.101,701.737 140.421,700.4C139.472,698.262 139.097,695.913 139.334,693.586C139.522,691.066 139.873,688.561 140.383,686.086C140.595,684.936 140.795,683.853 140.945,682.846C141.203,680.96 141.57,679.09 142.045,677.246C135.998,679.066 129.844,680.509 123.619,681.567C117.466,682.608 111.238,683.143 104.998,683.167C99.911,683.175 94.832,682.769 89.81,681.955C85.674,681.272 81.634,680.102 77.773,678.468C74.006,676.861 70.413,674.872 67.052,672.532C63.67,670.172 60.484,667.541 57.527,664.666C54.526,661.746 51.704,658.648 49.078,655.387C43.507,648.507 38.711,641.035 34.778,633.104C30.849,625.171 27.795,616.834 25.671,608.24C23.333,598.448 21.863,588.468 21.279,578.417C20.601,568.292 20.558,557.928 20.613,548.237C20.681,536.337 20.951,525.823 21.441,516.089C22.019,504.589 22.899,494.106 24.13,484.048C21.61,483.397 19.025,483.031 16.424,482.957C16.016,482.957 15.614,482.97 15.23,482.997C14.612,483.971 13.734,484.753 12.695,485.254C11.675,485.748 10.555,486.003 9.421,485.999C9.123,485.999 8.826,485.981 8.53,485.946C7.502,486.931 7.072,488.391 7.4,489.776C7.907,491.765 9.957,493.848 13.491,495.967C15.974,497.43 18.59,498.653 21.304,499.62C22.037,499.892 22.472,500.66 22.327,501.428C22.245,502.097 21.656,502.597 20.983,502.569L20.906,502.569L19.793,502.516C12.863,502.147 5.901,500.939 1.924,494.653C0.408,492.296 -0.243,489.483 0.086,486.7C0.431,483.976 1.633,481.431 3.518,479.434C5.783,458.016 10.952,436.763 15.95,416.21L15.982,416.079C16.553,413.73 17.144,411.301 17.72,408.912C22.839,387.684 28.783,365.35 35.892,340.635L38.81,330.506C43.745,313.415 49.11,295.142 54.9,277.306C61.252,257.738 67.469,240.682 73.907,225.164C77.882,215.582 81.683,207.373 85.527,200.064C89.775,191.877 94.654,184.033 100.12,176.603C105.213,169.751 110.83,163.304 116.92,157.32C123.02,151.346 129.555,145.834 136.471,140.829C148.193,132.329 161.847,124.629 178.214,117.289C192.639,110.819 207.601,105.299 222.938,99.747L224.28,99.262C239.21,93.862 255.161,88.016 270.658,81.871C277.676,79.089 284.658,75.871 291.401,72.758C297.708,69.848 304.23,66.84 310.761,64.199C310.315,63.389 309.887,62.575 309.489,61.781L309.24,61.992L309.235,61.992C309.196,62.022 309.155,62.053 309.113,62.082C308.604,62.424 308.002,62.602 307.388,62.592C306.368,62.579 305.387,62.192 304.633,61.504C303.264,60.363 302.53,58.627 302.665,56.85C302.913,55.128 303.597,53.497 304.652,52.113L304.928,51.719C306.897,48.961 308.728,46.037 310.507,43.209C311.029,42.378 311.62,41.436 312.196,40.53L313.689,38.185C317.605,32.055 321.875,25.636 327.225,20.445C329.577,18.165 332.295,16.296 335.265,14.916C335.231,14.824 335.247,14.72 335.309,14.644C335.824,14.094 336.532,13.765 337.284,13.726C337.461,13.713 337.636,13.765 337.778,13.872C343.024,12.099 348.542,11.263 354.078,11.404C358.626,11.404 363.232,11.795 367.192,12.162L369.079,6.171C369.775,4.283 371.021,2.645 372.655,1.471C374.05,0.509 375.706,-0.004 377.4,0C381.312,0.002 384.767,2.634 385.808,6.405C386.202,7.859 386.286,9.379 386.055,10.868C385.123,17.403 381.692,24.187 378.122,30.546C375.843,34.604 372.657,39.755 368.211,43.593C375.611,50.493 383.334,57.183 391.167,63.465C399.779,70.345 408.785,76.716 418.139,82.546C420.665,84.125 423.266,85.672 425.781,87.168C431.588,90.48 437.207,94.111 442.612,98.044C446.238,100.721 449.578,103.765 452.58,107.128C455.59,110.486 457.986,114.347 459.66,118.534C461.33,122.921 462.015,127.622 461.665,132.303C461.31,136.974 460.434,141.591 459.053,146.067L458.753,147.093C458.438,148.153 458.105,149.212 457.753,150.333C455.16,158.574 452.222,167.915 457.871,175.39C460.246,178.532 463.44,181.033 466.529,183.451C467.67,184.344 468.848,185.267 469.959,186.203C473.599,189.266 477.001,192.601 480.138,196.178C487.039,203.891 492.426,212.836 496.017,222.542L496.33,223.43C497.973,227.928 499.054,232.611 499.548,237.374C500.105,242.085 499.387,246.861 497.47,251.2C497.029,252.136 496.067,252.722 495.033,252.684C493.621,252.713 492.345,251.813 491.9,250.472C491.178,247.548 490.681,244.572 490.413,241.572C490.167,239.034 489.785,236.511 489.266,234.014C487.954,228.37 485.86,222.936 483.045,217.871C477.603,208.124 470.344,199.509 461.661,192.492L459.07,190.385C455.69,187.756 452.612,184.76 449.892,181.453C447.184,178.088 445.41,174.068 444.749,169.8C443.576,161.954 445.88,154.326 448.108,146.948L448.114,146.928C448.665,145.102 449.235,143.214 449.739,141.363C451.747,133.989 451.884,128.104 450.173,122.844C448.361,125.653 446.37,128.343 444.212,130.896C443.493,131.785 442.812,132.625 442.166,133.454C438.279,138.433 434.32,143.444 430.491,148.29L429.973,148.946L427.094,152.591C421.382,159.83 416.482,166.368 412.114,172.577C409.806,175.86 407.595,179.06 405.738,181.757C404.871,183.015 403.798,184.297 402.759,185.536L402.754,185.543C401.885,186.58 400.987,187.652 400.201,188.719C400.686,189.951 400.547,191.345 399.828,192.457C398.197,194.657 396.338,195.777 394.3,195.778C390.883,195.778 386.914,192.678 382.5,186.553C379.49,182.211 376.792,177.66 374.426,172.935L374.235,172.568L374.164,172.432C370.712,165.805 367.65,158.862 364.689,152.147C361.689,145.355 358.597,138.333 355.096,131.635C347.882,117.769 339.664,104.449 330.508,91.781C328.408,88.893 326.183,86.029 324.029,83.259C320.496,78.715 316.843,74.017 313.694,69.126C307.555,74.529 300.81,79.201 293.594,83.048C286.135,87.168 278.094,90.836 271.632,93.783L271.624,93.783C259.303,99.401 246.408,104.297 233.937,109.032L233.912,109.041C230.348,110.394 226.662,111.794 223.049,113.187L218.249,115.052C202.443,121.221 189.293,126.641 176.491,133.045C161.343,140.622 148.844,148.589 138.279,157.401C131.544,163.045 125.341,169.295 119.748,176.073C114.224,182.789 109.21,189.909 104.748,197.373C100.267,204.87 96.217,212.616 92.617,220.573C89.207,228.04 85.962,236.008 82.697,244.933C76.206,262.674 69.923,281.48 63.489,302.427C58.189,319.696 52.837,338.203 46.661,360.67C41.142,380.743 35.911,400.916 31.113,420.629C29.645,426.661 28.239,432.814 26.879,438.766L26.879,438.784C24.258,450.259 21.547,462.125 18.269,473.639C18.713,473.623 19.159,473.616 19.592,473.616C25.769,473.616 32.25,475.033 38.518,476.403C42.097,477.185 45.476,477.924 48.51,478.321C69.674,481.092 88.78,484.486 106.919,488.697C116.745,490.978 126.381,493.534 135.56,496.297C145.195,499.197 154.66,502.413 163.682,505.866C165.726,506.602 167.374,508.156 168.23,510.153C168.989,511.977 169.116,514.003 168.592,515.907L171.754,515.007L171.872,514.973C173.523,514.504 175.013,514.082 176.519,513.659C174.161,510.046 174.638,504.133 175.019,499.381C175.106,498.303 175.188,497.281 175.23,496.371L175.244,496.033C175.398,491.723 175.763,487.347 176.117,483.114L176.117,483.092C176.301,480.892 176.491,478.615 176.648,476.38C177.578,463.163 178.736,450.98 180.189,439.135L180.577,436.035C181.311,430.289 181.977,424.435 182.613,418.783L182.613,418.775C183.477,411.141 184.371,403.246 185.45,395.515L185.672,393.973C184.889,390.979 183.948,387.822 182.621,383.737C180.57,377.426 177.882,371.271 175.284,365.317C174.166,362.757 173.011,360.111 171.917,357.476C171.796,357.223 171.816,356.925 171.97,356.691C172.198,356.388 172.56,356.213 172.939,356.222C173.195,356.217 173.445,356.306 173.639,356.473C176.714,359.273 179.497,362.376 181.948,365.735C184.413,369.111 186.632,372.659 188.589,376.353C188.619,376.203 188.647,376.053 188.675,375.902C188.709,375.719 188.748,375.512 188.788,375.313L189.235,373.113C190.348,367.701 191.707,362.054 194.977,357.731C195.148,357.497 195.419,357.355 195.709,357.347C195.978,357.347 196.226,357.495 196.354,357.731C197.795,360.29 198.776,363.082 199.254,365.98C199.749,368.899 200.086,371.843 200.264,374.798C200.293,375.169 200.322,375.536 200.351,375.898C200.971,383.652 200.945,391.435 200.872,396.614C200.721,407.388 200.072,418.351 199.447,428.953C199.3,431.441 199.133,434.262 198.978,437.019C198.3,449.097 196.967,461.962 194.903,476.346L194.546,478.799C194.299,480.479 194.059,482.194 193.827,483.852L193.827,483.865C193.199,488.359 192.551,493 191.668,497.508L191.326,499.191C191.126,500.142 190.949,501.214 190.762,502.349C190.403,505.003 189.811,507.621 188.993,510.171C220.656,501.34 254.159,492.206 288.573,483.023C305.64,478.468 322.998,473.888 339.784,469.458C346.63,467.652 353.709,465.784 360.711,463.933C361.997,461.596 363.622,459.462 365.532,457.6C367.553,455.604 369.887,453.953 372.441,452.712C374.829,451.542 377.448,450.92 380.107,450.892C383.091,450.904 386.012,451.754 388.537,453.344C388.859,453.548 389.05,453.908 389.037,454.289C389.036,454.638 388.844,454.96 388.537,455.126C386.753,456.101 385.317,456.915 384.019,457.686L398.459,453.775C401.641,452.913 404.894,451.97 408.04,451.057L408.053,451.057C415.615,448.864 423.435,446.597 431.221,445.157C451.172,435.312 472.756,428.079 493.631,421.085L494.887,420.664L497.413,419.81C498.873,419.31 500.394,418.788 501.736,418.325C511.315,415.025 521.221,411.609 531.078,409.805C532.805,409.487 534.558,409.325 536.314,409.322C539.646,409.255 542.947,409.981 545.944,411.439C548.934,412.938 551.259,415.501 552.461,418.622C556.647,421.483 560.666,424.581 564.5,427.899C566.458,429.541 568.39,431.284 570.258,432.969L570.282,432.991C571.053,433.691 571.85,434.405 572.638,435.107L573.138,435.544L573.628,435.966L573.648,435.983C575.6,437.66 577.142,438.983 577.642,441.799C577.801,442.755 577.546,443.735 576.942,444.493C576.53,445.011 575.904,445.313 575.242,445.313C575.154,445.313 575.067,445.308 574.98,445.299C570.224,444.79 566.22,440.328 562.686,436.391C561.802,435.406 560.966,434.475 560.157,433.649C556.637,430.049 553.741,426.982 551.05,423.673C550.431,424.014 549.737,424.195 549.03,424.199C547.78,424.232 546.618,423.534 546.061,422.414C545.142,420.586 543.665,419.096 541.844,418.161C540.066,417.326 538.118,416.918 536.155,416.97C531.341,416.97 525.776,418.859 521.304,420.377L521.298,420.377C519.857,420.866 518.498,421.328 517.285,421.687L505.395,425.206C500.465,426.667 493.985,428.594 487.576,430.541C481.596,432.357 475.542,434.279 469.688,436.141C459.53,439.366 449.026,442.7 438.595,445.584C439.357,446.413 439.663,447.566 439.413,448.664C439.105,449.842 438.223,450.787 437.069,451.175C427.717,454.844 417.592,457.254 407.801,459.585L407.787,459.585C404.127,460.456 400.343,461.357 396.687,462.305C388.313,464.476 379.787,466.705 371.358,468.917C369.825,471.376 368.828,474.13 368.432,477C367.721,482.944 367.897,488.96 368.954,494.852C369.958,500.78 371.293,506.646 372.954,512.424L373.409,514.062C374.664,518.805 376.322,523.432 378.366,527.892C380.856,533.043 383.736,536.769 387.166,539.282C389.105,540.698 391.388,541.568 393.778,541.801C408.932,534.001 423.755,526.371 438.506,518.801C439.095,518.488 439.75,518.322 440.417,518.315C442.327,518.4 443.968,519.734 444.442,521.586C449.633,520.719 454.745,519.433 459.728,517.741C464.354,515.996 468.776,513.753 472.917,511.051C475.682,509.382 478.539,507.658 481.556,506.216C485.158,504.483 489.11,503.596 493.107,503.624C498.061,503.743 502.954,504.755 507.55,506.609C512.258,508.472 516.863,510.588 521.343,512.948C522.231,513.396 523.148,513.858 524.043,514.302L527.048,515.779C531.048,517.72 536.895,520.3 541.469,520.3C544.759,520.3 546.913,518.957 547.869,516.308C548.508,514.487 548.557,512.511 548.01,510.661C547.432,508.721 546.499,506.905 545.26,505.304C542.833,502.154 539.851,499.474 536.46,497.397C533.125,495.41 529.585,493.791 525.9,492.569C522.007,491.229 518.051,490.223 514.7,489.416C510.344,488.368 506,487.535 501.78,486.942C500.21,486.721 498.597,486.579 497.037,486.442C493.646,486.277 490.287,485.711 487.029,484.757C485.834,484.31 485.061,483.131 485.129,481.857C485.149,480.756 485.947,479.813 487.029,479.61C489.112,479.157 491.238,478.938 493.369,478.956C498.958,478.956 504.979,480.232 510.653,481.612L514.634,482.593C521.076,484.174 529.444,486.512 537.042,490.593C539.727,492.038 542.262,493.746 544.609,495.693C547.037,497.681 549.184,499.989 550.992,502.554C552.681,500.975 554.929,500.127 557.24,500.197C558.772,500.225 560.294,500.452 561.768,500.872L563.909,501.467C566.19,502.203 568.56,502.623 570.955,502.717C571.895,502.718 572.833,502.626 573.755,502.442C574.197,500.042 574.676,497.463 575.181,494.931C580.194,469.761 585.649,445.024 591.394,421.408C596.46,400.583 602.027,379.467 607.938,358.648C613.786,338.048 620.138,317.162 626.819,296.554L628.159,292.437C628.846,290.337 629.516,288.149 630.164,286.037L630.171,286.016C632.461,278.546 634.828,270.822 638.68,264.106C640.912,260.206 643.982,256.849 647.667,254.278C651.379,251.749 655.494,249.868 659.835,248.715C667.506,246.717 675.271,245.104 683.103,243.882L683.136,243.876C685.715,243.43 688.381,242.968 690.98,242.487C692.36,242.232 693.795,241.976 695.062,241.749C695.996,241.582 696.962,241.409 697.912,241.237C696.527,238.614 695.297,235.912 694.227,233.145C693.866,232.26 693.527,231.428 693.191,230.645L692.961,230.113C689.887,223.104 687.178,215.982 685.161,210.561L683.331,205.615C679.116,194.247 674.472,182.198 668.146,170.849C664.939,165.096 661.108,159.713 656.721,154.8C652.322,149.905 647.425,145.481 642.11,141.6C631.82,134.046 620.355,128.124 609.268,122.4C602.941,119.132 596.4,115.753 590.146,112.106C583.84,108.498 577.819,104.413 572.134,99.889C571.861,99.695 571.75,99.34 571.863,99.024C572.024,98.611 572.42,98.334 572.863,98.324C573.005,98.325 573.144,98.359 573.27,98.424C583.357,103.493 594.17,107.488 604.625,111.352L604.63,111.352C609.13,113.014 613.776,114.732 618.295,116.509L621.257,117.677C632.857,122.277 645.045,127.406 655.443,135.116C661.08,139.29 666.236,144.076 670.818,149.387C675.384,154.714 679.364,160.517 682.689,166.695C688.136,176.776 692.019,187.941 695.774,198.738L695.774,198.747C696.615,201.165 697.484,203.665 698.353,206.098L699.613,209.617C701.426,214.645 703.421,220.023 705.728,225.286C706.447,226.926 707.402,228.635 708.414,230.445C709.988,233.056 711.31,235.811 712.362,238.672L713.19,238.528L713.224,238.522C717.017,237.864 720.939,237.183 724.8,236.538C747.151,232.806 769.887,229.411 792.376,226.446C814.847,223.484 837.684,220.87 860.253,218.679C882.822,216.488 905.726,214.659 928.353,213.242C950.98,211.825 973.944,210.781 996.608,210.142L996.762,210.142C998.115,210.114 999.41,210.703 1000.28,211.742C1001.36,213.092 1001.8,214.847 1001.49,216.548C996.564,245.674 991.878,275.293 987.346,303.937L987.336,303.998C983.818,326.231 980.181,349.222 976.459,371.807C972.659,394.858 968.826,417.627 965.059,439.482C964.217,444.368 963.307,449.314 962.427,454.098C961.244,460.525 960.022,467.167 958.954,473.721C958.633,475.695 958.325,477.705 958.028,479.65L958.017,479.722C957.06,486.994 955.644,494.199 953.777,501.292C951.102,510.638 947.277,517.856 942.07,523.358C938.941,526.599 935.203,529.19 931.07,530.981C926.939,532.769 922.602,534.037 918.158,534.755C902.598,537.433 886.519,539.036 870.969,540.586C864.109,541.27 857.018,541.977 850.077,542.767L729.63,556.467C730.484,564.231 730.976,572.048 731.13,580.367C731.275,587.96 731.137,595.822 730.709,604.403L730.249,613.239C729.889,620.033 729.449,627.271 728.402,634.496C727.78,638.772 726.469,642.918 724.521,646.775C722.544,650.622 720.062,654.189 717.141,657.38C711.884,663.208 705.633,668.149 698.599,673.544C692.477,678.244 685.262,683.528 677.112,686.817L676.09,687.223C672.37,688.679 668.567,689.915 664.701,690.923C660.287,692.137 655.739,692.8 651.162,692.898C649.697,692.906 648.234,692.797 646.786,692.572C647.024,693.766 647.311,695 647.586,696.193C648.772,701.301 649.998,706.583 648.286,711.521C647.971,712.414 647.39,713.19 646.622,713.745C645.891,714.279 645.013,714.573 644.108,714.587ZM723.808,557.127L711.188,558.562C696.388,560.247 681.821,561.843 669.523,563.183L639.351,566.462C639.313,567.312 639.244,568.136 639.177,568.932L639.177,568.94C639.11,569.74 639.046,570.505 639.027,571.162C638.827,578.119 638.67,585.183 638.544,591.262C638.267,604.616 638.573,618.162 639.455,631.533C640.449,646.605 641.637,658.957 643.194,670.406L643.553,672.984L643.761,674.34C645.338,674.513 646.782,675.311 647.767,676.555C648.507,677.438 649.877,677.886 651.841,677.886C655.327,677.886 659.925,676.51 663.169,675.356C669.209,673.207 674.991,669.47 679.85,666.098C684.83,662.559 689.491,658.591 693.779,654.239L697.345,650.713C700.827,647.252 704.412,643.497 706.616,638.999C709.046,634.042 709.724,628.211 710.381,622.572C710.516,621.411 710.656,620.21 710.808,619.059C711.74,612.011 712.908,604.346 714.478,594.938L723.809,557.13L723.808,557.127ZM25.717,484.446L25.662,497.554C25.596,515.387 25.611,534.376 26.573,553.232L26.753,556.671C27.832,576.856 29.506,598.209 36.913,617.893C39.91,625.872 43.77,633.499 48.425,640.639C53.064,647.786 58.557,654.342 64.782,660.161C67.822,663.04 71.145,665.605 74.7,667.816C78.263,670.015 82.127,671.686 86.169,672.777C91.668,674.192 97.33,674.873 103.007,674.803C105.249,674.803 107.542,674.719 110.016,674.547C143.136,672.237 173.116,656.332 202.116,640.947L202.121,640.947C206.508,638.62 211.045,636.214 215.481,633.917C267.44,607.017 322.827,578.352 378.493,549.67C377.009,548.657 375.631,547.497 374.38,546.207C368.262,539.887 363.92,531.047 360.717,518.385C357.977,507.596 356.472,496.529 356.232,485.4L357.451,472.584L356.142,472.929C342.603,476.529 328.87,480.208 315.589,483.767C282.14,492.733 247.552,502.004 213.414,510.649C199.809,514.094 185.943,517.449 172.534,520.695C162.673,523.081 152.476,525.549 142.461,528.033L138.635,528.991C120.312,533.621 101.22,539.281 86.846,552.897C86.745,552.998 86.609,553.056 86.466,553.058C86.234,553.05 86.026,552.908 85.935,552.694C85.846,552.492 85.892,552.254 86.05,552.1C93.001,544.7 101.843,538.633 113.082,533.549C123.263,528.949 134.103,525.701 144.333,522.775C146.471,522.164 148.647,521.55 150.751,520.956L150.841,520.931C152.341,520.508 154.21,519.981 155.991,519.474C124.191,508.139 95.638,499.839 68.691,494.103C64.901,493.296 61.024,492.584 57.276,491.895L57.271,491.895C53.46,491.195 49.519,490.471 45.671,489.647C42.239,488.913 38.805,487.953 35.484,487.024C33.649,486.511 31.752,485.981 29.865,485.491L25.717,484.446ZM990.593,220.446C966.727,221.167 942.664,222.32 919.073,223.873C895.248,225.441 871.242,227.461 847.724,229.873C803.76,234.387 759.374,240.473 715.799,247.973C706.705,249.537 697.492,251.188 688.416,252.882L682.948,253.911C680.909,254.297 678.812,254.626 676.591,254.975C672.791,255.575 668.87,256.186 665.101,257.127C661.409,257.967 657.861,259.348 654.573,261.227C650.99,263.493 648.132,266.743 646.342,270.586C644.516,274.461 643.026,278.486 641.889,282.617C641.553,283.717 641.207,284.845 640.853,285.944C637.524,296.292 634.232,306.826 631.067,317.252C618.299,359.322 606.726,401.589 596.667,442.878C593.076,457.618 589.715,472.665 586.467,487.217L586.467,487.236C585.102,493.348 583.69,499.669 582.28,505.882C578.545,522.345 574.162,540.016 568.486,561.494C569.143,560.991 569.906,560.645 570.717,560.481C590.762,556.216 611.481,553.908 631.517,551.675C635.71,551.208 640.045,550.725 644.327,550.229L646.708,549.952C670.881,547.109 696.866,544.071 723.1,541.122L891.758,522.155C894.575,521.838 897.502,521.595 900.331,521.355C907.593,520.755 915.1,520.126 922.041,518.212C929.378,516.188 934.833,511.28 938.716,503.212C941.973,496.44 943.603,488.663 945.116,480.622L945.2,480.179C950.179,453.696 954.624,426.631 958.923,400.457L958.923,400.438C961.807,382.875 964.79,364.714 967.913,346.862L990.593,220.446ZM562.258,559.257L562.282,559.257C563.643,559.226 564.98,559.623 566.104,560.39L572.404,510.029C569.204,509.818 565.457,508.289 561.83,506.811C558.293,505.369 554.953,504.011 552.455,504.011C552.273,504.011 552.095,504.018 551.926,504.033C554.821,508.89 555.589,513.833 554.208,518.733C552.582,524.5 548.552,527.425 542.231,527.425C538.541,527.312 534.892,526.61 531.423,525.345C528.196,524.228 525.048,522.894 522,521.354C520.329,520.523 518.648,519.638 517.021,518.781C511.342,515.792 505.47,512.7 499.045,511.348C497.395,510.995 495.713,510.814 494.026,510.807C487.532,510.807 482.326,513.641 476.289,516.922L475.41,517.4C468.893,520.954 461.849,523.443 454.545,524.771C452.1,525.209 449.621,525.425 447.137,525.417C445.902,525.417 444.655,525.369 443.325,525.27C443.091,525.461 442.838,525.629 442.571,525.77L440.629,526.79C449.429,527.19 458.513,529.949 466.529,532.382C475.341,535.056 484.08,538.345 491.58,541.219L499.714,544.345C509.699,548.322 519.887,551.769 530.235,554.672C540.57,557.589 551.244,559.132 561.982,559.262L562.258,559.257ZM338.074,20.241C336.184,21.331 334.463,22.69 332.965,24.275C328.159,29.375 324.697,35.692 321.35,41.803L321.15,42.168C320.316,43.691 319.493,45.225 318.698,46.709L318.687,46.73C317.714,48.545 316.708,50.421 315.694,52.253C314.816,53.839 313.913,55.4 313.224,56.584C312.863,57.132 312.471,57.659 312.05,58.162C311.712,58.587 311.362,59.027 311.122,59.368C311.71,60.191 312.35,61.05 313.079,61.993C313.131,62.06 313.879,62.885 315.123,64.253L315.174,64.309C320.26,69.909 332.174,83.009 337.042,88.97C341.805,94.797 346.28,100.763 350.342,106.702C354.561,112.869 358.478,119.213 361.984,125.558C366.143,133.087 369.775,141.01 373.284,148.673C375.701,153.947 378.2,159.398 380.854,164.685C383.999,171.272 387.865,177.491 392.38,183.227C392.486,183.357 392.598,183.484 392.706,183.608L392.713,183.616L392.726,183.63C392.795,183.709 392.864,183.788 392.933,183.869C394.37,179.987 397.623,175.892 399.998,172.902C400.534,172.227 401.041,171.589 401.46,171.036L401.668,170.759C406.193,164.659 411.223,158.337 417.497,150.859C422.334,145.099 427.484,139.236 432.797,133.435L434.763,131.301C435.425,130.586 436.104,129.823 436.824,129.016C440.016,125.435 443.988,120.977 448.359,118.673C447.766,117.621 447.1,116.612 446.366,115.653C441.218,108.926 433.85,104.107 427.347,100.118L422.83,97.37C409.416,89.2 402.356,84.429 397.7,81.184C389.489,75.528 381.657,69.341 374.255,62.661C367.187,56.214 359.033,48.449 352.147,39.733L349.821,36.791L338.074,20.241ZM366.486,15.1C364.618,15.257 362.677,15.371 360.8,15.48C354.593,15.843 348.175,16.219 342.533,18.208C346.426,21.888 350.262,25.801 353.971,29.585C356.497,32.162 359.109,34.827 361.708,37.385C362.22,34.032 362.912,30.708 363.78,27.429C363.995,26.556 364.216,25.655 364.427,24.766L366.486,15.1ZM364.438,665.031C363.035,664.962 361.761,664.18 361.063,662.961C360.311,661.788 360.245,660.297 360.889,659.061C370.506,640.714 381.843,623.287 392.662,607.189L394.14,604.989C399.231,597.411 404.495,589.576 409.727,581.899C412.552,577.755 414.869,574.438 417.021,571.46L418.521,569.403L426.638,560.521C426.745,560.462 426.866,560.431 426.988,560.431C427.372,560.435 427.687,560.747 427.696,561.131C427.839,564.694 426.196,568.156 424.611,571.505C424.371,572.011 424.1,572.584 423.853,573.121L423.672,573.521C421.8,577.686 419.6,582.169 416.949,587.227C412.121,596.433 407.165,605.401 402.22,613.881C390.758,633.543 379.237,649.865 367,663.781C366.373,664.556 365.435,665.015 364.438,665.035L364.438,665.031ZM569.686,487.031C565.42,487.031 561.316,484.848 556.768,480.159L553.713,476.967C551.753,474.784 549.507,472.876 547.036,471.295C544.389,469.724 541.354,468.923 538.276,468.984C538.009,468.984 537.734,468.989 537.458,468.999C532.255,469.299 527.075,469.913 521.946,470.838L521.939,470.838C519.009,471.306 515.979,471.789 513.01,472.138C504.181,473.182 494.9,474.128 485.425,474.949L485.391,474.949C485.216,474.945 485.073,474.805 485.064,474.631C485.03,474.446 485.144,474.263 485.325,474.212L495.646,471.643L535.769,463.55C537.139,463.378 538.519,463.289 539.9,463.284C544.789,463.137 549.572,464.746 553.378,467.818C555.236,469.412 556.981,471.133 558.601,472.968C560.474,475.129 562.55,477.105 564.801,478.868C567.103,480.625 569.87,481.668 572.759,481.868C573.941,481.928 574.913,482.85 575.036,484.027C575.186,485.138 574.47,486.196 573.383,486.47C572.184,486.834 570.939,487.023 569.686,487.031ZM577.664,461.923C577.542,461.923 577.421,461.908 577.302,461.88C574.107,461.069 571.053,459.777 568.245,458.049C565.447,456.319 562.738,454.45 560.128,452.449C558.12,450.961 556.044,449.424 553.92,448.037C549.193,444.95 544.055,443.574 537.259,443.574C534.033,443.574 530.759,443.866 527.302,444.174L526.694,444.228C516.767,445.112 507.239,446.317 498.376,447.808C495.319,448.322 492.209,448.95 489.201,449.556C483.466,450.827 477.663,451.768 471.82,452.376L471.82,452.358C471.295,452.331 470.851,451.95 470.744,451.436C470.62,450.987 470.839,450.51 471.26,450.311C480.098,445.898 490.186,443.784 499.942,441.739L500.584,441.605L529.524,437.105L530.59,436.999C533.941,436.673 536.5,436.528 538.89,436.528C541.98,436.494 545.063,436.818 548.078,437.493C551.213,438.219 554.213,439.438 556.966,441.105L558.575,442.078C566.011,446.598 574.343,452.047 579.101,459.535C579.395,459.983 579.413,460.56 579.148,461.026C578.851,461.569 578.283,461.912 577.664,461.923ZM817.318,420.938C811.4,421.044 805.494,420.343 799.765,418.854C797.017,418.101 794.378,416.998 791.911,415.572C789.509,414.175 787.38,412.353 785.63,410.195C782.802,406.657 781.766,403.101 782.551,399.627C783.38,396.593 785.119,393.884 787.533,391.867C790.139,389.569 793.057,387.653 796.201,386.175C794.957,385.071 794.026,383.659 793.501,382.081C792.984,380.456 793.021,378.704 793.607,377.102C794.992,373.169 798.657,370.775 802.2,368.46C804.149,367.284 805.976,365.918 807.656,364.382C810.291,361.824 812.379,358.757 813.795,355.369C815.21,351.991 815.619,348.274 814.972,344.669L814.892,344.269C814.61,343.124 814.868,341.912 815.592,340.981C816.319,340.109 817.4,339.606 818.535,339.611C819.843,339.626 821.065,340.278 821.806,341.356L822.332,342.082C822.905,342.868 823.496,343.661 824.121,344.501L824.139,344.525C826.901,348.062 829.406,351.792 831.633,355.688C834.071,360.221 835.179,364.224 835.023,367.926C837.424,368.002 839.763,368.709 841.804,369.975C843.839,371.177 845.455,372.977 846.432,375.129C847.281,377.254 847.606,379.552 847.379,381.829C851.784,382.171 856.453,385.112 858.927,387.699C860.985,389.816 862.248,392.581 862.499,395.523C862.719,398.463 862.017,401.4 860.493,403.923C852.949,416.769 835.911,419.881 826.426,420.592L825.981,420.624C822.841,420.832 820.008,420.937 817.317,420.937L817.318,420.938ZM799.181,388.16C796.681,390.711 794.251,393.36 791.9,395.915C790.186,397.543 789.289,399.857 789.458,402.215C789.731,404.615 791.341,406.894 794.112,408.796C797.367,410.915 801.028,412.333 804.861,412.957C808.842,413.66 812.88,413.986 816.922,413.932L816.927,413.932C819.418,413.932 821.841,413.842 823.673,413.764C828.474,413.611 833.239,412.877 837.864,411.578C842.496,410.296 846.805,408.051 850.51,404.99L850.83,404.711C852.19,403.522 853.365,402.137 854.316,400.601C855.233,399.237 855.681,397.611 855.591,395.97C855.302,394.097 854.084,392.491 852.358,391.708C850.862,390.96 849.245,390.484 847.583,390.303C846.745,390.181 845.914,390.011 845.095,389.794C842.751,394.388 839.178,397.364 835.295,397.958C835.107,397.987 834.918,398.002 834.728,398.002C833.174,398.002 831.792,396.985 831.328,395.502C830.937,394.219 831.485,392.823 832.645,392.149L833.345,391.716C835.324,390.495 837.039,388.892 838.39,387C839.764,385.083 840.49,382.776 840.46,380.417C840.351,378.971 839.73,377.611 838.71,376.581C837.773,375.471 836.422,374.79 834.972,374.697C834,374.703 833.075,375.118 832.423,375.839L832.279,375.995C831.716,376.674 830.882,377.071 830,377.08C828.707,377.03 827.526,376.321 826.874,375.203C826.248,374.219 826.196,372.97 826.74,371.938L826.824,371.789L821.983,353.655C821.258,356.761 820.043,359.731 818.383,362.455C816.687,365.242 814.604,367.775 812.196,369.978C810.331,371.692 808.301,373.216 806.134,374.528L805.873,374.679C805.59,374.838 805.229,375.026 804.88,375.209C802.652,376.372 799.285,378.13 799.596,380.196C799.83,381.747 802.775,383.596 804.031,384.317C806.304,385.625 808.712,386.574 809.757,386.575C810.009,386.59 810.219,386.779 810.262,387.028C810.317,387.234 810.212,387.451 810.017,387.536C808.012,388.536 805.817,389.099 803.578,389.19C802.053,389.186 800.549,388.834 799.181,388.16ZM234.648,335.028C233.187,335.124 231.885,334.059 231.689,332.608C229.882,320.976 228.089,309.165 226.345,297.744L226.345,297.73C224.289,284.23 222.163,270.261 220.014,256.536C218.485,246.771 216.735,236.872 215.043,227.299L215.043,227.283C214.529,224.383 213.998,221.375 213.475,218.383L207.867,181.677C207.863,181.49 207.935,181.309 208.067,181.177C208.22,181.027 208.426,180.942 208.64,180.942C208.899,180.936 209.141,181.075 209.267,181.301C214.732,190.916 217.814,202.286 220.795,213.28C221.134,214.529 221.483,215.818 221.83,217.08C224.864,228.124 227.608,240.064 230.465,254.654C232.978,267.481 234.909,280.382 236.205,292.999C237.521,305.815 238.234,318.839 238.324,331.712C238.336,332.537 238.011,333.332 237.424,333.912C236.68,334.631 235.683,335.032 234.648,335.028ZM275.814,298.54C274.559,298.527 273.37,297.968 272.558,297.011C271.801,296.102 271.505,294.891 271.758,293.735L268.37,200.4C268.249,200.076 268.296,199.712 268.496,199.429C268.727,199.139 269.081,198.974 269.452,198.984C269.972,198.974 270.445,199.293 270.631,199.778C273.71,207.335 276.256,215.099 278.248,223.013C280.246,230.945 281.652,239.015 282.456,247.155C284.14,263.429 283.031,279.872 279.176,295.773C278.885,297.387 277.454,298.565 275.814,298.539L275.814,298.54ZM463.071,212.8C462.48,212.817 461.915,212.551 461.55,212.086C461.069,211.445 460.624,210.777 460.219,210.086C459.528,208.751 458.563,207.576 457.387,206.639C455.48,205.29 453.096,204.81 450.787,204.347C449.765,204.142 448.709,203.929 447.727,203.647C443.668,202.517 439.984,200.322 437.058,197.291L426.585,173.656C426.561,173.403 426.645,173.151 426.815,172.963C427.012,172.767 427.281,172.661 427.559,172.668C427.931,172.661 428.284,172.835 428.506,173.134C430.213,175.655 431.757,178.282 433.129,181C434.687,184.158 436.521,187.173 438.608,190.01C440.764,192.871 443.634,195.116 446.931,196.518C448.889,197.264 450.909,197.833 452.968,198.218C456.168,198.918 459.477,199.634 462.249,201.833C463.774,202.985 464.979,204.508 465.749,206.257C466.504,208 466.337,210.01 465.303,211.603C464.799,212.342 463.965,212.789 463.071,212.8ZM480.723,194.807C480.005,194.817 479.313,194.537 478.804,194.031C476.066,191.131 475.48,186.81 477.064,181.178C478.477,176.722 480.435,172.459 482.895,168.484C487.317,160.97 493.356,155.76 499.749,150.243C500.96,149.198 502.212,148.118 503.461,147.013C511.887,139.56 517.287,129.356 522.052,120.353C523.452,117.716 524.846,115.006 526.198,112.385L526.24,112.304C527.896,109.094 529.609,105.774 531.34,102.536C528.52,100.044 527.318,95.392 526.351,91.655C526.18,90.991 526.018,90.365 525.851,89.765L525.751,89.403C523.875,82.922 522.455,76.318 521.5,69.639C520.59,63.294 520.245,56.881 520.469,50.475L520.537,48.834L523.688,37.066C523.863,36.973 524.058,36.924 524.256,36.921C524.655,36.935 525.024,37.141 525.245,37.474C525.484,37.713 525.618,38.038 525.618,38.377C525.618,38.801 525.407,39.199 525.055,39.436C525.938,41.737 526.64,44.104 527.155,46.514C527.741,49.101 528.377,51.744 529.099,54.591C529.782,57.285 530.434,60.035 531.065,62.691L531.073,62.725L531.078,62.748C531.711,65.418 532.365,68.178 533.052,70.883C534.435,76.329 536.16,82.058 538.18,87.911C538.295,88.246 538.428,88.611 538.586,89.02L538.806,89.587L538.86,89.501C538.96,89.321 539.149,89.206 539.355,89.201C539.534,89.205 539.703,89.286 539.819,89.423C539.949,89.573 540.006,89.774 539.974,89.97C539.919,90.333 539.852,90.701 539.787,91.057L539.787,91.093C539.747,91.312 539.706,91.539 539.668,91.762L539.868,92.297C541.138,95.715 541.994,99.29 539.678,102.287C538.977,103.322 537.892,104.037 536.665,104.273C534.728,110.529 532.436,116.669 529.8,122.664L529.049,124.395C525.433,132.695 521.39,141.419 515.255,148.946C512.365,152.319 509.23,155.474 505.876,158.386C501.624,162.262 497.227,166.271 493.976,171.286C491.404,175.344 489.386,179.728 487.976,184.321L487.412,186.078C486.334,189.393 485.112,192.528 482.048,194.444C481.649,194.687 481.19,194.813 480.723,194.807ZM532.533,185.872C531.233,185.891 529.966,185.456 528.952,184.641L522.087,178.941C520.933,177.982 519.781,177.018 518.663,176.078C517.62,175.2 516.671,174.388 515.763,173.593L514.331,172.329C514.167,172.182 513.865,171.872 513.484,171.479C512.369,170.332 510.684,168.598 510.076,168.501C510.016,168.492 509.956,168.487 509.896,168.487C508.07,168.487 504.414,172.299 502.45,174.347L502.444,174.353C502.181,174.627 501.954,174.863 501.768,175.053L501.563,175.253C498.547,178.23 495.761,181.432 493.229,184.83C493.11,185.001 492.915,185.105 492.707,185.109C492.5,185.109 492.307,185.004 492.194,184.83C492.081,184.643 492.074,184.408 492.177,184.215C494.434,179.309 497.15,174.627 500.29,170.233L500.929,169.359C501.286,168.879 501.663,168.336 502.062,167.759L502.079,167.734C504.046,164.901 506.493,161.376 509.567,160.683C510.006,160.585 510.454,160.535 510.903,160.536C514.275,160.536 517.617,163.252 520.303,165.436C520.873,165.9 521.412,166.336 521.925,166.73L522.134,166.888C523.843,168.171 525.526,169.476 526.801,170.469C526.67,166.206 526.989,161.942 527.751,157.746C528.5,153.572 529.984,149.564 532.134,145.909C534.401,142.439 537.072,139.251 540.089,136.409C541.359,135.115 542.672,133.778 543.902,132.402C546.225,129.629 548.261,126.629 549.979,123.446C551.385,120.909 552.958,118.467 554.687,116.138C555.179,115.511 555.898,115.103 556.688,115C556.808,111.759 557.21,108.46 557.599,105.27L557.605,105.223C557.714,104.333 557.826,103.412 557.929,102.512L558.067,101.28C558.136,100.635 558.217,99.986 558.302,99.298C558.802,95.285 559.364,90.737 557.487,87.147C555.834,83.985 552.411,81.523 549.387,79.347C548.601,78.781 547.858,78.247 547.152,77.708L544.281,75.48L535.989,67.557C535.734,67.231 535.695,66.784 535.889,66.419C536.157,65.93 536.666,65.619 537.223,65.604C537.307,65.604 537.39,65.612 537.472,65.629C542.672,66.704 547.697,69.503 552.556,72.211C553.318,72.635 554.181,73.117 555.006,73.566L555.59,73.883C559.749,76.125 564.315,79.044 566.649,83.702C569.08,88.55 568.959,94.089 568.598,99.812L568.566,100.318C568.477,101.704 568.402,103.129 568.33,104.506L568.33,104.535C568.197,109.692 567.656,114.831 566.711,119.903C566.512,121.009 565.909,122.002 565.019,122.688C564.208,123.275 563.227,123.583 562.226,123.565C561.653,123.564 561.084,123.478 560.536,123.309C558.317,130.309 553.12,135.971 548.093,141.442C546.351,143.342 544.549,145.3 542.941,147.253C539.632,151.271 537.691,156.247 537.009,162.467C536.409,167.949 536.831,173.647 537.24,179.157C537.29,179.824 537.339,180.488 537.386,181.149C537.507,182.321 537.123,183.49 536.332,184.362C535.328,185.367 533.953,185.913 532.533,185.872Z" style="fill-rule:nonzero;"/>
                    </g>
                </g>
            </g>
            <g transform="matrix(1,0,0,1,225,0)">
                <g>
                    <g>
                        <g id="_Skin1" serif:id="_Skin" transform="matrix(1,0,0,1,65.001,149)">
                            <path d="M340.529,155C338.376,136.085 341.162,96.549 341.349,94.147C342.529,78.962 335.414,18.999 321.964,24.524C299.4,6.666 269.351,2.722 241.251,0.838C182.883,-3.076 120.791,5.909 75.72,45.189C53.431,65.589 31.732,95.257 33.476,126.149C13.226,155.431 -15.324,195.6 9.908,229.831C18.485,240.768 32.116,244.841 42.89,253.124C64.562,270.604 78.158,295.69 100.035,313.066C157.995,365.149 256.412,376.029 313.358,316.789C357.393,273.889 350.273,209.699 342.527,155.003C337.321,118.23 344.728,191.9 340.529,155Z" style="fill:white;fill-rule:nonzero;"/>
                        </g>
                        <g id="_Ink1" serif:id="_Ink" transform="matrix(1,0,0,1,48,65.001)">
                            <path d="M250.311,443.271C243.942,443.257 237.582,442.789 231.28,441.871C223.954,440.896 216.751,439.153 209.789,436.671C206.199,435.378 202.809,433.587 199.717,431.351C196.664,429.083 193.908,426.438 191.517,423.48C190.17,421.653 189.911,419.233 190.842,417.163C191.455,415.711 192.898,414.772 194.474,414.801C194.682,414.801 194.89,414.814 195.097,414.84C202.215,415.575 209.252,416.956 216.121,418.964L217.121,419.281C224.118,421.578 231.339,423.127 238.662,423.901C242.356,424.259 246.102,424.44 249.797,424.44C261.117,424.464 272.374,422.748 283.172,419.351C289,417.495 294.64,415.091 300.015,412.172C305.389,409.252 310.494,405.861 315.27,402.04C324.841,394.379 333.042,385.147 339.522,374.74C346.541,363.473 351.194,350.729 353.747,335.78C356.2,321.418 356.43,306.63 356.331,294.06C356.103,264.167 355.131,232.894 353.441,201.109L353.161,195.95C352.446,182.861 351.521,165.599 350.712,148.14C350.443,142.292 350.058,137.516 349.501,133.11C343.636,129.805 338.711,125.058 335.192,119.32C328.551,121.979 321.718,124.128 314.751,125.75C305.2,128.114 295.399,129.318 285.56,129.335C279.809,129.337 274.065,128.908 268.378,128.052C264.238,129.762 259.955,131.288 255.648,132.588C254.448,133.118 253.276,133.63 252.148,134.111C241.813,138.612 231.136,142.284 220.218,145.091L217.518,145.764C211.553,147.36 205.465,148.453 199.318,149.031C198.244,149.439 197.145,149.776 196.027,150.041C191.897,151.04 187.662,151.544 183.413,151.541C181.906,151.541 180.381,151.477 178.878,151.352C176.013,151.139 173.444,149.482 172.069,146.959C171.524,145.924 171.249,144.768 171.269,143.598C171.302,142.308 171.668,141.048 172.332,139.942C174.555,136.128 176.847,132.242 179.142,128.392C171.152,131.689 162.971,134.501 154.642,136.811C147.249,138.893 139.181,140.857 129.251,142.991C126.997,143.472 124.701,143.932 122.481,144.378L122.465,144.378C120.21,144.831 117.878,145.299 115.592,145.787C114.868,145.941 114.061,146.078 113.206,146.223C110.182,146.735 106.761,147.315 104.701,148.977C102.429,150.801 101.438,154.442 100.563,157.655C100.315,158.567 100.08,159.429 99.831,160.187C98.276,164.863 96.942,169.201 95.751,173.447C93.264,182.356 91.228,191.386 89.65,200.5C88.081,209.636 87.002,218.849 86.419,228.1C86.176,231.91 86.076,235.793 85.979,239.548C85.841,244.899 85.698,250.432 85.14,255.84C84.998,257.368 84.314,258.796 83.211,259.863C82.195,260.836 80.843,261.383 79.436,261.391C77.982,261.368 76.587,260.808 75.52,259.82C75.083,259.435 74.62,259.02 74.156,258.607L73.48,257.99C70.114,255.042 67.044,251.773 64.311,248.23C63.841,247.584 63.38,246.895 62.94,246.18C62.868,246.18 62.797,246.155 62.74,246.111L62.006,245.558C54.293,239.816 47.655,236.905 42.276,236.905C38.447,236.838 34.811,238.621 32.52,241.69C29.949,244.948 28.66,249.157 27.653,252.846L25.779,259.846C24.504,264.4 23.496,269.024 22.759,273.695C21.91,279.081 21.896,284.565 22.719,289.955C23.493,295.359 25.742,300.446 29.219,304.655C32.077,308.083 36.088,310.355 40.498,311.045C41.143,311.132 41.794,311.174 42.445,311.171C43.944,311.137 45.439,311.006 46.92,310.777L46.947,310.777C47.251,310.737 47.555,310.697 47.86,310.658C48.481,310.584 49.106,310.548 49.731,310.552C50.392,310.552 51.061,310.583 51.707,310.613L51.712,310.613C52.363,310.643 53.036,310.674 53.703,310.674C54.265,310.674 54.767,310.652 55.24,310.607C55.393,310.592 55.545,310.584 55.693,310.584C57.113,310.579 58.432,311.338 59.141,312.568C60.13,314.193 60.246,316.209 59.449,317.937C58.709,319.444 57.763,320.84 56.639,322.087C57.504,322.836 58.329,323.631 59.11,324.467C61.53,325.303 63.631,326.873 65.119,328.957C66.334,330.567 67.045,332.503 67.159,334.517C67.286,334.963 67.404,335.44 67.529,336.017L69.675,339.498C70.201,340.35 70.663,341.088 71.089,341.756C76.37,350.172 82.78,357.825 90.14,364.5C92.823,366.943 95.64,369.33 98.359,371.639C103.136,375.557 107.712,379.713 112.07,384.091L112.87,384.932C116.219,388.237 119.109,391.977 121.461,396.052C123.906,400.675 124.549,405.058 123.427,409.452C122.822,411.359 121.06,412.678 119.06,412.722C118.326,412.728 117.609,412.497 117.017,412.062C112.634,408.809 109.491,404.332 106.452,400.002C104.435,396.98 102.204,394.106 99.777,391.402C96.533,387.956 93.055,384.632 89.691,381.418C86.419,378.292 83.036,375.059 79.87,371.718C73.87,365.368 68.978,358.055 65.4,350.085C63.249,352.166 60.377,353.34 57.384,353.362C55.228,353.349 53.123,352.702 51.332,351.501C49.533,350.308 48.077,348.665 47.109,346.735C45.719,347.36 44.293,347.901 42.838,348.355C42.023,348.61 41.175,348.742 40.321,348.748C37.743,348.726 35.354,347.365 34.021,345.158C33.179,343.831 32.672,342.319 32.543,340.753C32.397,339.131 32.672,337.499 33.343,336.015C34.762,332.807 36.727,329.87 39.152,327.335C31.718,326.224 24.799,322.862 19.331,317.705C13.497,311.832 9.593,304.315 8.143,296.165C7.356,292.119 6.987,288.003 7.043,283.882C7.097,279.762 7.481,275.654 8.19,271.595C9.698,262.989 12.129,254.57 15.44,246.485C16.067,244.953 16.671,243.585 17.289,242.314C16.904,242.308 16.542,242.132 16.299,241.834C15.544,240.803 14.723,239.823 13.929,238.876C12.297,237.088 10.896,235.102 9.759,232.965C9.427,232.283 9.081,231.587 8.746,230.914C7.492,228.503 6.369,226.026 5.38,223.495C2.765,216.436 1.628,208.532 0.93,202.435C-0.609,188.197 -0.212,173.816 2.11,159.685C3.979,147.607 7.139,135.764 11.536,124.361C15.912,113.006 21.47,102.142 28.118,91.949C27.384,91.564 26.693,91.101 26.058,90.569L25.739,90.291L25.221,89.823C23.497,88.214 22.514,85.961 22.505,83.603C22.423,80.969 23.402,78.409 25.221,76.503L26.314,75.403C27.771,73.914 29.384,72.586 31.126,71.442C31.449,71.225 31.788,71.016 32.134,70.819C30.871,68.535 30.597,65.831 31.374,63.34C32.12,60.695 33.932,58.474 36.374,57.213C38.949,55.933 41.799,55.304 44.674,55.381C48.955,55.419 53.178,56.382 57.053,58.204C66.902,49.397 77.804,41.843 89.509,35.715C103.767,28.348 118.575,22.098 133.8,17.02C149.018,11.915 164.542,7.774 180.281,4.62C194.047,1.688 208.071,0.141 222.145,0C224.064,0 225.987,0.035 227.86,0.1L229.089,0.148C235.59,0.306 242.072,0.915 248.489,1.97C256.075,3.345 262.045,5.534 266.738,8.663C267.159,8.232 267.735,7.984 268.338,7.975C268.632,7.975 268.922,8.041 269.187,8.168C280.707,13.668 293.306,17.758 305.487,21.716L308.387,22.658C321.43,26.93 334.924,29.674 348.6,30.835C350.032,30.962 351.408,31.458 352.592,32.273C353.756,33.052 354.697,34.12 355.324,35.373C356.362,37.427 356.192,39.894 354.883,41.787C354.083,43.014 353.314,44.236 352.604,45.373L353.738,45.254L353.744,45.254C354.605,45.163 355.496,45.069 356.371,44.981C356.551,44.963 356.735,44.954 356.918,44.954C358.926,45.04 360.814,45.944 362.14,47.454C363.602,48.926 364.412,50.926 364.386,53C364.236,55.512 363.959,58.016 363.556,60.5L363.844,60.5C365.34,60.486 366.824,60.773 368.207,61.345C371.615,62.785 373.696,65.485 374.568,69.601C375.299,73.05 375.062,76.943 374.758,80.636C373.889,91.162 369.85,101.014 363.676,107.667C366.157,110.24 368.307,113.113 370.076,116.219C371.886,119.432 373.308,122.849 374.312,126.398C375.939,131.8 376.603,137.447 376.272,143.079L376.138,144.752C375.592,151.131 374.497,157.623 370.221,161.899C368.471,163.72 366.053,164.752 363.528,164.755C363.218,164.755 362.902,164.739 362.591,164.709C364.191,178.786 365.233,193.201 366.161,206.759L366.612,213.459C367.856,232.276 368.69,247.745 369.237,262.141C369.907,279.783 370.137,295.72 369.937,310.863C369.86,318.384 369.375,325.895 368.485,333.363C367.604,340.721 366.198,348.006 364.277,355.163C362.356,362.286 359.806,369.225 356.657,375.897C353.423,382.709 349.507,389.176 344.968,395.197C340.741,400.791 336.052,406.021 330.952,410.832C325.867,415.628 320.384,419.983 314.562,423.851C308.743,427.715 302.595,431.059 296.19,433.845C289.752,436.639 283.071,438.834 276.23,440.4C267.725,442.325 259.031,443.288 250.311,443.271ZM63,290.8L62.835,290.8C60.279,290.724 57.832,289.739 55.935,288.024C54.057,286.268 52.38,284.308 50.935,282.182C50.43,281.497 49.908,280.79 49.382,280.11C48.962,280.891 48.395,281.584 47.712,282.15L47.252,282.51C45.848,283.725 44.079,284.441 42.225,284.546C42.133,284.546 42.041,284.546 41.952,284.54C40.514,284.475 39.108,284.096 37.832,283.429C36.258,282.559 35.05,281.148 34.432,279.459C32.977,275.786 34.248,271.56 37.488,269.299L36.888,268.886C35.557,268.036 34.406,266.934 33.499,265.641L33.292,265.31L33.372,265.31C33.068,264.806 32.908,264.228 32.908,263.639C32.908,262.206 33.858,260.935 35.233,260.53C36.208,260.223 37.226,260.072 38.249,260.082C42.487,260.082 47.202,262.275 50.992,264.036C51.372,264.213 51.764,264.395 52.144,264.569C58.18,267.339 63.386,271.526 68.114,275.639C70.261,277.513 71.114,280.739 70.394,284.269L70.358,284.447C70.31,284.689 70.258,284.938 70.203,285.189C69.822,286.795 68.873,288.209 67.531,289.17C66.234,290.184 64.645,290.755 63,290.8Z" style="fill-rule:nonzero;"/>
                        </g>
                    </g>
                </g>
                <g transform="matrix(1,0,0,1,212,238)">
                    <g>
                        <path d="M140.63,0.473L139.193,0.179C137.503,-0.159 135.804,-0.016 134.311,0.591C132.847,1.187 131.572,2.224 130.68,3.721C129.495,5.714 129.337,7.386 129.887,9.595C130.311,11.302 131.242,12.586 132.46,13.514C133.744,14.491 135.37,15.061 137.06,15.259C144.854,16.175 152.53,17.89 159.992,20.324C163.488,21.464 166.788,23.01 170.058,24.613L172.877,26.002C175.477,27.273 178.163,28.499 181.557,29.389C181.824,29.458 182.087,29.524 182.349,29.587C183.29,29.291 183.45,28.933 183.649,28.673L183.73,28.572C183.972,28.268 184.271,27.802 183.988,25.631C176.583,10.271 156.267,3.742 140.63,0.473ZM43.588,4.83L45.465,4.502C51.273,3.497 58.494,2.532 62.603,7.201C64.782,9.677 65.532,14.279 62.603,16.649C58.767,19.754 54.63,19.651 50.218,19.542C48.704,19.504 47.158,19.466 45.581,19.556C40.493,19.848 35.603,20.69 30.702,22.091C19.95,25.164 11.189,30.774 2.006,36.934C0.801,37.742 -0.429,36.201 0.146,35.074C5.447,24.691 15.72,16.162 26.01,10.963C31.502,8.188 37.512,5.886 43.588,4.83ZM29.963,50.146C30.798,39.79 46.57,37.438 48.139,47.686C49.544,56.866 47.89,65.299 43.755,73.564C39.804,81.46 29.874,77.776 29.123,70.586C28.381,63.484 28.907,59.248 29.443,54.933C29.634,53.392 29.827,51.841 29.963,50.146ZM159.205,41.826C155.401,40.715 152.226,42.681 150.027,45.561C149.773,45.893 149.566,46.222 149.38,46.548C142.515,52.856 145.101,65.645 150.501,72.049C153.814,75.976 161.145,74.845 163.413,70.385C167.587,62.172 171.09,45.299 159.205,41.826ZM128.748,119.039C136.872,107.66 125.366,96.957 117.814,92.367C115.836,90.947 117.406,86.243 121.634,86.97C160.031,93.567 140.136,159.708 91.112,123.413C85.275,118.704 92.343,108.334 98.634,112.366C98.953,112.611 99.288,112.869 99.636,113.139C106.704,118.603 119.636,128.601 128.748,119.039ZM93.587,188.926C86.864,186.184 80.866,181.61 76.481,175.766C74.957,173.735 74.561,171.589 74.881,169.627C75.241,167.421 76.546,165.422 78.326,164.08C80.112,162.735 82.345,162.072 84.504,162.41C86.381,162.704 88.248,163.731 89.727,165.862L90.035,166.288C92.642,169.815 96.04,172.708 99.91,174.574C103.641,176.372 107.814,177.211 112.132,176.723C120.356,175.794 126.024,171.346 132.049,165.306C132.796,164.544 133.543,163.757 134.294,162.958C134.768,162.234 135.426,161.768 136.157,161.524C136.968,161.253 137.886,161.268 138.726,161.562C139.537,161.845 140.262,162.381 140.747,163.094C141.209,163.772 141.471,164.61 141.386,165.574C140.835,171.833 137.562,177.419 132.914,181.805C127.752,186.677 120.909,190.047 114.466,191.229C107.368,192.531 100.136,191.598 93.587,188.926Z"/>
                    </g>
                </g>
            </g>
        </g>
    </g>
</svg>
