<?xml version="1.0" encoding="UTF-8" standalone="no"?>
<!DOCTYPE svg PUBLIC "-//W3C//DTD SVG 1.1//EN" "http://www.w3.org/Graphics/SVG/1.1/DTD/svg11.dtd">
<svg width="100%" height="100%" viewBox="0 0 100 100" version="1.1" xmlns="http://www.w3.org/2000/svg" xmlns:xlink="http://www.w3.org/1999/xlink" xml:space="preserve" xmlns:serif="http://www.serif.com/" style="fill-rule:evenodd;clip-rule:evenodd;stroke-linejoin:round;stroke-miterlimit:2;">
    <g transform="matrix(1.25,0,0,1.25,-12.5,-12.5185)">
        <path d="M25.85,61.45C23.305,61.45 21.21,63.545 21.21,66.09C21.21,68.635 23.305,70.73 25.85,70.73C28.395,70.73 30.49,68.635 30.49,66.09C30.49,66.087 30.49,66.083 30.49,66.08C30.485,63.538 28.392,61.45 25.85,61.45ZM25.85,67.72C24.95,67.72 24.21,66.98 24.21,66.08C24.21,65.18 24.95,64.44 25.85,64.44C26.75,64.44 27.49,65.18 27.49,66.08C27.49,66.083 27.49,66.087 27.49,66.09C27.49,66.984 26.754,67.72 25.86,67.72C25.857,67.72 25.853,67.72 25.85,67.72Z" style="fill:white;fill-rule:nonzero;"/>
    </g>
    <g transform="matrix(1.25,0,0,1.25,-12.5,-12.5185)">
        <path d="M36.7,61.45C34.155,61.45 32.06,63.545 32.06,66.09C32.06,68.635 34.155,70.73 36.7,70.73C39.245,70.73 41.34,68.635 41.34,66.09C41.34,66.087 41.34,66.083 41.34,66.08C41.335,63.538 39.242,61.45 36.7,61.45ZM36.7,67.72C35.8,67.72 35.06,66.98 35.06,66.08C35.06,65.18 35.8,64.44 36.7,64.44C37.6,64.44 38.34,65.18 38.34,66.08C38.34,66.083 38.34,66.087 38.34,66.09C38.34,66.984 37.604,67.72 36.71,67.72C36.707,67.72 36.703,67.72 36.7,67.72Z" style="fill:white;fill-rule:nonzero;"/>
    </g>
    <g transform="matrix(1.25,0,0,1.25,-12.5,-12.5185)">
        <path d="M77.29,64.58L51.81,64.58C50.987,64.58 50.31,65.257 50.31,66.08C50.31,66.903 50.987,67.58 51.81,67.58L77.29,67.58C78.113,67.58 78.79,66.903 78.79,66.08C78.79,65.257 78.113,64.58 77.29,64.58Z" style="fill:white;fill-rule:nonzero;"/>
    </g>
    <g transform="matrix(1.25,0,0,1.25,-12.5,-12.5185)">
        <path d="M83.36,27.06C82.597,23.632 79.512,21.183 76,21.22L24,21.22C20.503,21.202 17.439,23.646 16.68,27.06L10.23,55.39C10.077,56.252 10,57.125 10,58L10,69.6C10.005,74.65 14.16,78.805 19.21,78.81L80.79,78.81C85.844,78.805 90,74.644 90,69.59C90,69.583 90,69.577 90,69.57L90,58C89.997,57.115 89.917,56.231 89.76,55.36L83.36,27.06ZM19.57,27.73C20.024,25.664 21.885,24.19 24,24.22L76,24.22C78.1,24.209 79.939,25.679 80.39,27.73L86.7,55.58C85.04,54.168 82.93,53.391 80.75,53.39L19.21,53.39C17.013,53.379 14.883,54.156 13.21,55.58L19.57,27.73ZM87,69.57C87,72.977 84.197,75.78 80.79,75.78L19.21,75.78C15.803,75.78 13,72.977 13,69.57L13,62.57C13,59.163 15.803,56.36 19.21,56.36C19.21,56.36 80.79,56.36 80.79,56.36C84.197,56.36 87,59.163 87,62.57C87,62.58 87,62.59 87,62.6L87,69.57Z" style="fill:white;fill-rule:nonzero;"/>
    </g>
</svg>
