<?xml version="1.0" encoding="UTF-8" standalone="no"?>
<!DOCTYPE svg PUBLIC "-//W3C//DTD SVG 1.1//EN" "http://www.w3.org/Graphics/SVG/1.1/DTD/svg11.dtd">
<svg width="100%" height="100%" viewBox="0 0 100 125" version="1.1" xmlns="http://www.w3.org/2000/svg" xmlns:xlink="http://www.w3.org/1999/xlink" xml:space="preserve" xmlns:serif="http://www.serif.com/" style="fill-rule:evenodd;clip-rule:evenodd;stroke-linejoin:round;stroke-miterlimit:2;">
    <g transform="matrix(1,0,0,1,0.00779253,12.5128)">
        <path d="M46.7,66.83L51.12,71.25C52.089,72.261 53.44,72.821 54.84,72.79L60.07,72.79L60.07,77.21C60.07,80.502 62.778,83.21 66.07,83.21L70.49,83.21L70.49,88.43C70.494,89.806 71.037,91.127 72,92.11L75.47,95.58C76.39,96.492 77.635,97.003 78.93,97L92.71,97C95.067,96.995 97.005,95.057 97.01,92.7L97.01,78.92C97.014,77.615 96.495,76.361 95.57,75.44L66.83,46.7C68.056,43.205 68.683,39.528 68.683,35.824C68.683,17.803 53.853,2.974 35.833,2.974C27.122,2.974 18.759,6.439 12.6,12.6C6.439,18.759 2.974,27.122 2.974,35.833C2.974,53.853 17.803,68.683 35.824,68.683C39.528,68.683 43.205,68.056 46.7,66.83ZM16.85,16.83C21.884,11.789 28.724,8.953 35.848,8.953C50.578,8.953 62.698,21.074 62.698,35.803C62.698,39.403 61.975,42.966 60.57,46.28C60.095,47.402 60.349,48.708 61.21,49.57L91,79.37L91,91L79.37,91L76.44,88.07L76.44,81C76.44,78.882 74.698,77.14 72.58,77.14L66.07,77.14L66.07,70.65C66.07,68.532 64.328,66.79 62.21,66.79L55.15,66.79L49.57,61.21C48.708,60.349 47.402,60.095 46.28,60.57C42.971,61.97 39.414,62.691 35.821,62.691C21.091,62.691 8.971,50.57 8.971,35.841C8.971,28.72 11.803,21.884 16.84,16.85L16.85,16.83ZM29.41,40.42C35.444,40.42 40.41,35.454 40.41,29.42C40.41,23.386 35.444,18.42 29.41,18.42C23.376,18.42 18.41,23.386 18.41,29.42C18.41,35.454 23.376,40.42 29.41,40.42ZM29.41,24.5C32.153,24.5 34.41,26.757 34.41,29.5C34.41,32.243 32.153,34.5 29.41,34.5C26.667,34.5 24.41,32.243 24.41,29.5C24.41,29.497 24.41,29.493 24.41,29.49C24.41,26.747 26.667,24.49 29.41,24.49C29.41,24.49 29.41,24.49 29.41,24.49L29.41,24.5Z" style="fill:white;fill-rule:nonzero;"/>
    </g>
</svg>
