<?xml version="1.0" encoding="UTF-8" standalone="no"?>
<!DOCTYPE svg PUBLIC "-//W3C//DTD SVG 1.1//EN" "http://www.w3.org/Graphics/SVG/1.1/DTD/svg11.dtd">
<svg width="100%" height="100%" viewBox="0 0 1080 1080" version="1.1" xmlns="http://www.w3.org/2000/svg" xmlns:xlink="http://www.w3.org/1999/xlink" xml:space="preserve" xmlns:serif="http://www.serif.com/" style="fill-rule:evenodd;clip-rule:evenodd;stroke-linecap:round;stroke-linejoin:round;">
    <g transform="matrix(62.437,0,0,62.437,-209.244,-209.244)">
        <path d="M5,4L17,4M5,8L13,8M5,12L9,12M5,16L8,16M5,20L11,20M16.473,17.453C17.046,16.874 17.4,16.078 17.4,15.2C17.4,13.433 15.967,12 14.2,12C12.433,12 11,13.433 11,15.2C11,16.967 12.433,18.4 14.2,18.4C15.089,18.4 15.893,18.038 16.473,17.453ZM16.473,17.453L19,20" style="fill:none;fill-rule:nonzero;stroke:white;stroke-width:1px;"/>
    </g>
</svg>
