<svg width="590" height="605" viewBox="0 0 590 605" fill="none" xmlns="http://www.w3.org/2000/svg">
<path fill-rule="evenodd" clip-rule="evenodd" d="M243.611 147.443L191.59 150.451C167.038 149.593 153.656 162.779 156.91 183.609L191.622 186.402L190.455 460.08L165.856 467.29C158.428 469.598 153.63 481.489 156.919 489.187L190.34 487.207L244.791 483.996L254.383 483.574C273.9 482.966 285.728 475.225 287.53 458.658L244.686 448.897L244.301 329.15L324.042 320.582L324.836 347.317C342.872 347.869 355.221 342.899 357.405 317.298V250.22C346.134 250.323 341.392 251.681 335.186 257.579C329.804 262.694 329.33 261.939 325.572 277.437L244.301 284.728V211.505L390.836 198.704L390.928 220.012C408.585 219.586 414.578 208.4 417.351 194.644L418.232 133.095V109.448C394.301 109.24 393.456 121.863 390.652 135.28L243.611 147.443Z" fill="white"/>
<path fill-rule="evenodd" clip-rule="evenodd" d="M589.777 31.1709C589.777 22.8451 586.339 14.8887 580.275 9.18344C574.211 3.47814 566.061 0.5304 557.751 1.03587C461.875 6.8753 176.318 24.2655 55.541 31.6213C24.6855 33.5 0.624023 59.0718 0.624023 89.9835C0.624023 204.908 0.624023 465.715 0.624023 537.258C0.624023 549.286 4.20181 561.043 10.9013 571.032C12.044 572.735 13.234 574.51 14.4466 576.317C26.9718 594.991 48.3637 605.738 70.8205 604.639C186.989 598.956 542.928 581.546 542.928 581.546V523.729C542.928 523.729 177.111 544.544 73.6585 550.43C66.6526 550.829 59.7916 548.324 54.6909 543.505C49.5901 538.686 46.6989 531.979 46.6989 524.962V57.2391V86.6014C46.6989 86.6014 430.843 63.8272 522.508 58.3932C527.567 58.0939 532.526 59.8906 536.217 63.3628C539.908 66.835 542.006 71.6745 542.017 76.7422C542.199 164.364 542.928 517.367 542.928 517.367V581.546H546.445C570.377 581.546 589.777 562.146 589.777 538.216V31.1709Z" fill="white"/>
<path fill-rule="evenodd" clip-rule="evenodd" d="M46.5081 55.4437L20.9951 66.8887L46.5081 142.905V105.83C46.5081 94.9377 54.9961 85.9327 65.8691 85.2887C88.7431 83.9357 123.727 81.8657 123.727 81.8657L116.913 40.1677C116.913 40.1677 81.2581 42.3867 62.1521 43.5747C55.0231 44.0187 48.8561 48.6977 46.5081 55.4437Z" fill="white"/>
<path fill-rule="evenodd" clip-rule="evenodd" d="M541.479 505.605C539.251 516.826 529.315 524.849 517.876 524.662C494.217 525.601 458.459 528.633 431.817 530.115L567.825 565.551L546.075 501.584L542.48 500.564C542.48 500.564 542.065 502.657 541.479 505.605Z" fill="white"/>
</svg>
